<svg xmlns="http://www.w3.org/2000/svg" style="display: none;">

  <!-- CLOSE -->
  <symbol id="icon-close-black" viewBox="0 0 8 8">
    <path d="M1 1L7 7M7 1L1 7" stroke="black" stroke-width="1.5" stroke-linecap="round"/>
  </symbol>

  <!-- CHECK -->
  <symbol id="icon-check" viewBox="0 0 16 12">
    <path d="M1 6L6 11L15 1" stroke="currentColor" stroke-width="2" fill="none"/>
  </symbol>

  <!-- SEND -->
  <symbol id="icon-send" viewBox="0 0 24 24">
    <path d="M2 21L23 12L2 3V10L17 12L2 14V21Z" fill="currentColor"/>
  </symbol>

  <!-- PHONE -->
  <symbol id="icon-phone" viewBox="0 0 24 24">
    <path d="M6.6 10.8C8.4 14.4 11.6 17.6 15.2 19.4L18 16.6C18.3 16.3 18.7 16.2 19.1 16.3C20.4 16.7 21.7 17 23 17C23.6 17 24 17.4 24 18V23C24 23.6 23.6 24 23 24C10.3 24 0 13.7 0 1C0 0.4 0.4 0 1 0H6C6.6 0 7 0.4 7 1C7 2.3 7.3 3.6 7.7 4.9C7.8 5.3 7.7 5.7 7.4 6L6.6 10.8Z" fill="currentColor"/>
  </symbol>

  <!-- PERSON -->
  <symbol id="icon-person" viewBox="0 0 24 24">
    <path d="M12 12C14.8 12 17 9.8 17 7C17 4.2 14.8 2 12 2C9.2 2 7 4.2 7 7C7 9.8 9.2 12 12 12ZM12 14C8.7 14 2 15.7 2 19V22H22V19C22 15.7 15.3 14 12 14Z" fill="currentColor"/>
  </symbol>

  <!-- EMAIL -->
  <symbol id="icon-email" viewBox="0 0 24 24">
    <path d="M2 4H22C23.1 4 24 4.9 24 6V18C24 19.1 23.1 20 22 20H2C0.9 20 0 19.1 0 18V6C0 4.9 0.9 4 2 4ZM12 13L2 6V18H22V6L12 13ZM12 11L22 4H2L12 11Z" fill="currentColor"/>
  </symbol>

</svg>